<?xml version="1.0" encoding="UTF-8"?>
<svg version="1.1" xmlns="http://www.w3.org/2000/svg" width="512" height="512">
<path d="M0 0 C1.0626709 -0.00700928 2.1253418 -0.01401855 3.22021484 -0.02124023 C6.71999527 -0.03879217 10.21896187 -0.02720672 13.71875 -0.01367188 C16.1582047 -0.01636757 18.59765835 -0.02025065 21.03710938 -0.02526855 C26.14463552 -0.03115984 31.25188147 -0.02261213 36.359375 -0.00390625 C42.89976303 0.01888256 49.43949444 0.00575757 55.9798584 -0.01819611 C61.01567515 -0.03266376 66.05133673 -0.02804354 71.0871582 -0.01768494 C73.49845457 -0.01502035 75.90976511 -0.01827793 78.32104492 -0.02760315 C81.69357516 -0.03778414 85.0650483 -0.02224437 88.4375 0 C89.42991699 -0.00809692 90.42233398 -0.01619385 91.44482422 -0.02453613 C98.34397278 0.05958517 102.89357197 1.27820518 107.97851562 6.23193359 C111.83496641 12.21206022 111.90714064 17.66356105 111.71875 24.64257812 C111.72132813 25.70089844 111.72390625 26.75921875 111.7265625 27.84960938 C111.63598567 35.06858297 110.64766351 39.62914044 105.90625 45.26757812 C99.85314447 50.33529438 93.76822184 49.70171158 86.21875 49.51757812 C86.21875 56.11757812 86.21875 62.71757813 86.21875 69.51757812 C88.054375 69.72382812 89.89 69.93007812 91.78125 70.14257812 C119.71835258 74.2020562 146.42585071 84.84775261 169.99316406 100.28076172 C174.32038643 103.1117948 174.32038643 103.1117948 179.21875 104.51757812 C181.22878379 103.15667519 181.22878379 103.15667519 183.03125 101.08007812 C183.72347656 100.34402344 184.41570312 99.60796875 185.12890625 98.84960938 C187.67430679 96.00922784 190.21015077 93.16536988 192.671875 90.25195312 C194.21875 88.51757812 194.21875 88.51757812 196.71875 86.51757812 C198.60182799 84.44205653 198.60182799 84.44205653 198.09375 80.83007812 C197.69727746 78.60817994 197.19831232 76.43497583 196.65625 74.24414062 C195.44654339 69.3213068 194.67817869 65.50177942 196.21875 60.51757812 C200.69678304 54.55120974 206.25256791 49.32940703 211.53125 44.08007812 C212.60342773 43.00209961 212.60342773 43.00209961 213.69726562 41.90234375 C214.72303711 40.87850586 214.72303711 40.87850586 215.76953125 39.83398438 C216.38481689 39.21982666 217.00010254 38.60566895 217.6340332 37.97290039 C220.02620639 35.77605177 221.22151127 35.51726553 224.53125 35.14257812 C228.21875 35.51757812 228.21875 35.51757812 231.03125 37.70507812 C233.05385721 40.30557311 234.23744159 42.39523317 235.21875 45.51757812 C235.899375 44.54820313 236.58 43.57882813 237.28125 42.58007812 C239.60985695 39.73623343 240.17145592 39.52843251 244.03125 38.64257812 C245.083125 38.60132813 246.135 38.56007812 247.21875 38.51757812 C248.84375 40.14257812 248.84375 40.14257812 250.21875 42.51757812 C249.35546072 48.06729492 245.93685611 51.56562886 242.21875 55.51757812 C243.45625 55.60007813 244.69375 55.68257812 245.96875 55.76757812 C248.83973669 56.14935827 250.20875673 56.51133233 252.71875 58.08007812 C254.43495644 60.86891358 254.96575241 63.11126559 254.796875 66.39306641 C254.08344336 69.01480717 252.99842813 70.27185212 251.15625 72.25976562 C250.20528442 73.29907227 250.20528442 73.29907227 249.23510742 74.359375 C248.56970947 75.07158203 247.90431152 75.78378906 247.21875 76.51757812 C246.58622314 77.21431641 245.95369629 77.91105469 245.30200195 78.62890625 C243.39274122 80.73048597 241.46447581 82.8130436 239.53125 84.89257812 C238.88091797 85.60285156 238.23058594 86.313125 237.56054688 87.04492188 C236.92826172 87.72425781 236.29597656 88.40359375 235.64453125 89.10351562 C235.08161377 89.71243652 234.51869629 90.32135742 233.9387207 90.94873047 C231.37445072 93.28769412 229.30451054 94.5122989 225.80859375 94.52929688 C224.93332031 94.42230469 224.05804688 94.3153125 223.15625 94.20507812 C222.19074219 94.10710937 221.22523438 94.00914063 220.23046875 93.90820312 C218.24433823 93.65059865 216.26536046 93.32868702 214.30078125 92.93945312 C211.45373076 92.45250932 209.08918741 92.17005661 206.21875 92.51757812 C204.01830241 94.09394919 202.70853158 95.78166905 201.12109375 97.97070312 C198.76882448 101.11994247 196.0864537 103.77483125 193.28125 106.51757812 C192.31365998 107.47576798 191.34620054 108.43408973 190.37890625 109.39257812 C189.66605469 110.09382813 188.95320313 110.79507813 188.21875 111.51757812 C189.32579589 114.83871581 190.13085725 115.52632966 192.7578125 117.69726562 C204.55062464 127.71458979 215.33871013 138.83620403 224.21875 151.51757812 C224.62109863 152.08089844 225.02344727 152.64421875 225.43798828 153.22460938 C256.07154163 196.2810412 268.43352662 250.95314344 260.19140625 303.09960938 C253.29790733 342.8281197 236.5973954 378.64999046 209.171875 408.37695312 C207.58972392 410.11099071 206.10928119 411.86457195 204.65625 413.70507812 C201.47450756 417.3763194 197.92168694 420.38478545 194.21875 423.51757812 C193.26871094 424.35546875 192.31867188 425.19335938 191.33984375 426.05664062 C166.14416981 448.13686889 135.26772079 463.00223094 102.65625 470.26757812 C101.77171143 470.46633545 100.88717285 470.66509277 99.97583008 470.86987305 C82.85604064 474.48341406 66.00420205 474.86232098 48.56494141 474.83325195 C44.62243738 474.83010105 40.68069261 474.85359342 36.73828125 474.87890625 C-17.49385018 475.01372001 -68.1966752 458.58765823 -108.125 420.96289062 C-110.72508774 418.5101178 -110.72508774 418.5101178 -113.4296875 416.41210938 C-117.03011528 413.51143251 -119.79841656 410.0340635 -122.78125 406.51757812 C-123.62042969 405.56625 -124.45960937 404.61492187 -125.32421875 403.63476562 C-161.08182997 362.83105259 -176.07627039 310.0459865 -173.78125 256.51757812 C-171.84267562 228.5400386 -164.14518851 201.15424625 -150.78125 176.51757812 C-150.42804688 175.85274414 -150.07484375 175.18791016 -149.7109375 174.50292969 C-138.75949037 153.92957263 -124.4834494 136.68672861 -107.78125 120.51757812 C-110.43020049 115.75522583 -113.22000115 111.48707234 -116.609375 107.21679688 C-117.78125 105.51757812 -117.78125 105.51757812 -117.78125 103.51757812 C-118.49667969 103.83855469 -119.21210937 104.15953125 -119.94921875 104.49023438 C-125.17672514 106.38655738 -130.89815698 106.63345964 -136.1328125 104.60742188 C-141.53023581 101.46397871 -144.78730199 97.49942215 -146.78125 91.51757812 C-147.42167322 86.19471624 -147.15020429 81.30655667 -144.4609375 76.59570312 C-140.44931943 71.63249193 -134.97767917 68.1374801 -129.78125 64.51757812 C-129.01103516 63.97842773 -128.24082031 63.43927734 -127.44726562 62.88378906 C-121.93112782 59.03649073 -116.38820747 55.23143782 -110.78125 51.51757812 C-110.05768311 51.03426025 -109.33411621 50.55094238 -108.58862305 50.05297852 C-107.89679932 49.60301514 -107.20497559 49.15305176 -106.4921875 48.68945312 C-105.88552246 48.29209961 -105.27885742 47.89474609 -104.65380859 47.48535156 C-99.96059272 45.05980949 -95.17024933 45.28215451 -90.09375 46.14257812 C-85.19979196 48.1740324 -82.02873378 50.81268362 -78.90625 55.08007812 C-77.05515618 60.73619812 -76.47926633 67.12186396 -78.6484375 72.77929688 C-79.71875 74.64257813 -79.71875 74.64257813 -81.78125 77.51757812 C-82.11125 78.17757812 -82.44125 78.83757812 -82.78125 79.51757812 C-82.1315625 80.4328125 -81.481875 81.34804687 -80.8125 82.29101562 C-79.96850492 83.49136418 -79.12476827 84.69189446 -78.28125 85.89257812 C-77.85199219 86.49585937 -77.42273438 87.09914063 -76.98046875 87.72070312 C-73.78125 92.29101562 -73.78125 92.29101562 -73.78125 94.51757812 C-73.18401123 94.22101318 -72.58677246 93.92444824 -71.97143555 93.61889648 C-23.18574003 69.51757812 -23.18574003 69.51757812 2.21875 69.51757812 C2.21875 62.91757813 2.21875 56.31757812 2.21875 49.51757812 C-0.2871875 49.61039063 -0.2871875 49.61039063 -2.84375 49.70507812 C-8.65774557 49.67526276 -13.13518467 49.05564079 -17.50390625 44.86523438 C-23.18760166 38.50970736 -23.04789027 33.10974641 -23.15625 24.83007812 C-23.21232422 23.23389648 -23.21232422 23.23389648 -23.26953125 21.60546875 C-23.33632867 15.59741179 -22.84187577 11.30721797 -19.54541016 6.2253418 C-13.53406392 0.40616564 -8.01366718 -0.06538184 0 0 Z M-11.78125 14.51757812 C-12.0873605 17.77923823 -12.0596194 21.05581548 -12.09375 24.33007812 C-12.12275391 25.24595703 -12.15175781 26.16183594 -12.18164062 27.10546875 C-12.19001953 27.99041016 -12.19839844 28.87535156 -12.20703125 29.78710938 C-12.22161377 30.59768799 -12.23619629 31.4082666 -12.2512207 32.2434082 C-11.58479325 35.46822467 -10.36923525 36.50060486 -7.78125 38.51757812 C-4.3819305 39.12488003 -4.3819305 39.12488003 -0.50585938 39.03515625 C0.21981735 39.04216553 0.94549408 39.0491748 1.69316101 39.05639648 C4.08749873 39.07397529 6.48065066 39.06235519 8.875 39.04882812 C10.54122138 39.0515231 12.20744123 39.05540556 13.87365723 39.0604248 C17.36400338 39.06631966 20.85393979 39.05775762 24.34423828 39.0390625 C28.81686263 39.01627258 33.2885269 39.02939578 37.76111603 39.05335236 C41.20126573 39.0678109 44.64118803 39.06320417 48.0813446 39.05284119 C49.7303631 39.05017404 51.37940227 39.05344328 53.02839661 39.0627594 C55.33393992 39.07292642 57.63793157 39.05742427 59.94335938 39.03515625 C61.25477905 39.03197388 62.56619873 39.0287915 63.9173584 39.0255127 C67.74157571 38.43713894 68.93010572 37.57724747 71.21875 34.51757812 C71.80932826 32.26489065 71.80932826 32.26489065 71.71484375 29.85742188 C71.71581055 28.54354492 71.71581055 28.54354492 71.71679688 27.203125 C71.69681641 26.29626953 71.67683594 25.38941406 71.65625 24.45507812 C71.66333984 23.54435547 71.67042969 22.63363281 71.67773438 21.6953125 C71.8487167 16.92749144 71.8487167 16.92749144 69.87915039 12.79711914 C66.33141104 10.06315327 62.74180092 10.38014163 58.43994141 10.35644531 C57.41257622 10.34899796 57.41257622 10.34899796 56.36445618 10.34140015 C54.09973138 10.32680097 51.83507661 10.31998047 49.5703125 10.31445312 C47.99474079 10.30870003 46.41916909 10.30294232 44.84359741 10.29718018 C41.53993402 10.28667672 38.23629492 10.2808297 34.93261719 10.27734375 C30.7035111 10.27185892 26.47472695 10.2478286 22.24572182 10.2193718 C18.9908861 10.20073048 15.73612772 10.19553904 12.48124313 10.19400787 C10.92234918 10.19098442 9.36345649 10.18296622 7.80461502 10.16982269 C5.62161129 10.15272962 3.43939152 10.15464987 1.25634766 10.16113281 C0.01519196 10.15748718 -1.22596375 10.15384155 -2.50473022 10.15008545 C-6.35439132 10.58186134 -9.02300645 11.75933458 -11.78125 14.51757812 Z M222.21875 48.51757812 C220.02126772 50.67021383 217.84533049 52.83690087 215.69921875 55.04101562 C213.21875 57.51757812 213.21875 57.51757812 210.95703125 59.36914062 C208.7028024 61.37978876 207.40379017 62.72141593 206.21875 65.51757812 C206.5440807 70.75486909 207.71152596 75.50654757 209.21875 80.51757812 C211.29922297 81.04972222 213.38327293 81.56789598 215.46875 82.08007812 C216.62890625 82.37011719 217.7890625 82.66015625 218.984375 82.95898438 C222.13493062 83.50310207 223.31737794 83.59448692 226.21875 82.51757812 C228.21360319 80.95048715 228.21360319 80.95048715 230.109375 78.95507812 C230.81835938 78.2409375 231.52734375 77.52679688 232.2578125 76.79101562 C232.98742187 76.04078125 233.71703125 75.29054688 234.46875 74.51757812 C235.21382813 73.76734375 235.95890625 73.01710938 236.7265625 72.24414062 C240.27934544 69.28548354 240.27934544 69.28548354 242.21875 65.51757812 C241.31511719 65.34742187 240.41148437 65.17726563 239.48046875 65.00195312 C238.30097656 64.75960937 237.12148438 64.51726562 235.90625 64.26757812 C234.14861328 63.91953125 234.14861328 63.91953125 232.35546875 63.56445312 C228.87653223 62.40336348 227.90121002 61.71654122 226.21875 58.51757812 C225.55859375 56.19335938 225.55859375 56.19335938 225.15625 53.83007812 C224.79633155 51.50467327 224.79633155 51.50467327 224.21875 49.51757812 C223.55875 49.18757813 222.89875 48.85757813 222.21875 48.51757812 Z M12.21875 49.51757812 C12.21875 55.78757813 12.21875 62.05757812 12.21875 68.51757812 C23.76875 68.51757812 35.31875 68.51757812 47.21875 68.51757812 C47.21875 62.24757813 47.21875 55.97757813 47.21875 49.51757812 C35.66875 49.51757812 24.11875 49.51757812 12.21875 49.51757812 Z M-108.34375 62.83007812 C-109.21765381 63.46929199 -110.09155762 64.10850586 -110.99194336 64.76708984 C-112.76040576 66.06122901 -114.52358549 67.36261978 -116.28125 68.67138672 C-118.52860183 70.33100337 -120.79784577 71.94567953 -123.09375 73.53710938 C-123.73368896 73.98207764 -124.37362793 74.4270459 -125.03295898 74.88549805 C-126.20524608 75.69931849 -127.37913804 76.51083404 -128.55493164 77.31958008 C-131.52717765 79.41956156 -133.88918347 81.38544097 -135.78125 84.51757812 C-136.31629846 88.18648187 -136.2990338 89.80802254 -134.09375 92.83007812 C-131.42285739 94.77910787 -130.07786827 95.32062511 -126.78125 95.51757812 C-123.68550202 94.08372203 -123.68550202 94.08372203 -120.53125 91.83007812 C-119.63684204 91.22909302 -119.63684204 91.22909302 -118.72436523 90.6159668 C-116.73099861 89.26699313 -114.75579669 87.89393274 -112.78125 86.51757812 C-112.05631348 86.01871094 -111.33137695 85.51984375 -110.58447266 85.00585938 C-108.33202359 83.45507285 -106.08618529 81.89530583 -103.84375 80.33007812 C-103.14668945 79.84385986 -102.44962891 79.3576416 -101.73144531 78.85668945 C-93.24352578 73.3588022 -93.24352578 73.3588022 -87.59375 65.45507812 C-87.58422969 62.42027146 -87.58422969 62.42027146 -89.28125 59.70507812 C-96.46215525 53.42178603 -102.00885385 58.02739662 -108.34375 62.83007812 Z M-114.34375 142.26757812 C-145.4678461 178.05744366 -163.33061607 223.11361756 -163.09375 270.64257812 C-163.09192719 271.40626709 -163.09010437 272.16995605 -163.08822632 272.95678711 C-162.90654533 318.33560732 -146.82631046 362.25854744 -116.78125 396.51757812 C-116.04261719 397.36578125 -115.30398437 398.21398437 -114.54296875 399.08789062 C-112.32169986 401.59688865 -110.06522562 404.0656043 -107.78125 406.51757812 C-107.09675781 407.25621094 -106.41226563 407.99484375 -105.70703125 408.75585938 C-71.92977231 443.90668523 -21.58846223 463.57861126 26.66796875 464.54882812 C59.29321803 464.64146415 91.58950097 457.27181383 120.21875 441.51757812 C120.81445801 441.19821289 121.41016602 440.87884766 122.02392578 440.54980469 C144.9792863 428.23107403 165.2389344 411.08176705 181.21875 390.51757812 C181.65477539 389.95796387 182.09080078 389.39834961 182.54003906 388.82177734 C189.7201432 379.53663201 195.83417 369.94505797 201.21875 359.51757812 C201.56534668 358.85032715 201.91194336 358.18307617 202.26904297 357.49560547 C210.96587584 340.52268833 216.93332495 322.30192523 220.21875 303.51757812 C220.39607666 302.51718506 220.57340332 301.51679199 220.75610352 300.48608398 C222.29401493 290.93761838 222.57866263 281.59809739 222.53125 271.95507812 C222.52909485 271.16421814 222.5269397 270.37335815 222.52471924 269.55853271 C222.30197814 218.50189467 201.86782169 172.64769445 167.21875 135.51757812 C158.63902124 139.10725775 152.12505243 148.54785385 146.21875 155.51757812 C145.07316781 156.85112724 143.92734743 158.18447179 142.78125 159.51757812 C141.935625 160.50757813 141.09 161.49757813 140.21875 162.51757812 C140.82460938 163.14921875 141.43046875 163.78085938 142.0546875 164.43164062 C170.362823 194.65601915 185.4574774 234.23811841 184.46484375 275.69726562 C182.80055282 315.49120687 167.45250278 350.68753077 140.21875 379.51757812 C139.17654297 380.6390625 139.17654297 380.6390625 138.11328125 381.78320312 C111.84428391 409.15272312 73.02668369 424.50876178 35.421875 425.72070312 C-8.2118178 426.41344061 -47.11450578 411.37174776 -78.78125 381.51757812 C-79.50570312 380.85757812 -80.23015625 380.19757813 -80.9765625 379.51757812 C-109.08244658 352.92276308 -123.55707698 313.34035098 -124.96484375 275.25195312 C-125.9253594 233.33678792 -110.06762658 194.14006289 -81.78125 163.51757812 C-81.11867188 162.7725 -80.45609375 162.02742188 -79.7734375 161.25976562 C-53.32059089 132.90895693 -13.65514803 118.36443279 24.37988281 116.59912109 C63.58739799 115.47293344 101.79657527 128.36453392 131.21875 154.51757812 C134.35483345 153.15612505 136.1332845 151.72246023 138.28125 149.08007812 C142.15099731 144.48998824 146.3793666 140.32240688 150.66796875 136.13085938 C153.03781732 133.70294407 155.1514659 131.20456332 157.21875 128.51757812 C155.66722939 124.25089646 152.45529692 121.99354976 148.96875 119.33007812 C148.34250732 118.84740479 147.71626465 118.36473145 147.07104492 117.86743164 C122.98502491 99.55337135 95.85882943 87.43298365 66.21875 81.51757812 C65.44869629 81.35386719 64.67864258 81.19015625 63.88525391 81.02148438 C-1.48223383 67.4225744 -69.71136671 94.24539357 -114.34375 142.26757812 Z M-97.37890625 87.92382812 C-98.09755859 88.42011719 -98.81621094 88.91640625 -99.55664062 89.42773438 C-100.31138672 89.95238281 -101.06613281 90.47703125 -101.84375 91.01757812 C-102.60236328 91.54222656 -103.36097656 92.066875 -104.14257812 92.60742188 C-106.02357915 93.90874334 -107.90305323 95.21221401 -109.78125 96.51757812 C-108.70169741 98.2491077 -107.61742488 99.97769496 -106.53125 101.70507812 C-105.62632813 103.14947266 -105.62632813 103.14947266 -104.703125 104.62304688 C-102.86487455 107.3916314 -100.89699051 109.95715764 -98.78125 112.51757812 C-94.89515189 110.76691017 -91.50312742 108.33433807 -88.03125 105.89257812 C-87.42925781 105.47234375 -86.82726562 105.05210938 -86.20703125 104.61914062 C-84.73011957 103.58764675 -83.25545806 102.55293234 -81.78125 101.51757812 C-84.86373312 95.72250985 -88.48404336 90.49151023 -92.78125 85.51757812 C-94.58615219 85.51757812 -95.9386964 86.92588744 -97.37890625 87.92382812 Z M-81.78125 178.51757812 C-106.98184522 208.85615878 -117.50804691 247.21297775 -114.57910156 286.20898438 C-112.78317422 303.31434521 -107.6758762 320.26254856 -99.78125 335.51757812 C-99.23597656 336.60425781 -98.69070312 337.6909375 -98.12890625 338.81054688 C-81.16875394 371.61555803 -51.14298618 396.87661631 -16.24951172 408.74316406 C8.890636 416.63085433 36.46240627 418.79763579 62.21875 412.51757812 C62.90227539 412.35660645 63.58580078 412.19563477 64.29003906 412.02978516 C102.30039428 402.79768535 133.91717472 377.9432606 154.41015625 345.04492188 C159.33663376 336.88360944 162.95910458 328.44997961 166.21875 319.51757812 C166.59902344 318.49921875 166.97929687 317.48085938 167.37109375 316.43164062 C179.77609103 281.51040299 176.06311084 242.01083887 160.53125 208.76757812 C153.49377374 194.27559984 144.46154237 181.99957884 133.21875 170.51757812 C123.50643495 178.611174 115.07627161 187.62734984 107.21875 197.51757812 C107.92 198.36578125 108.62125 199.21398437 109.34375 200.08789062 C130.13223667 225.62309401 137.45083733 252.72601189 135.21875 285.51757812 C132.26852597 312.05121295 117.99336256 335.7950869 98.16015625 353.17382812 C74.86055989 371.73924355 46.01219545 380.04693101 16.41845703 376.81103516 C-11.84612132 373.04033336 -37.00321537 358.77722082 -54.78125 336.51757812 C-72.81875296 312.37359021 -79.01405992 283.15626217 -75.39892578 253.3671875 C-70.70113315 225.82807946 -55.35637118 200.98834254 -32.78125 184.51757812 C-8.56577126 167.46926396 21.11964498 161.77461213 50.23291016 166.59814453 C66.94736417 169.83860144 82.94481408 176.65408138 95.921875 187.84960938 C96.67984375 188.40003906 97.4378125 188.95046875 98.21875 189.51757812 C101.5195424 188.41731399 102.14355282 187.69048475 104.28125 185.08007812 C107.13779088 181.70306581 110.12976324 178.55910274 113.28125 175.45507812 C117.15369625 171.62992893 120.75315626 167.71277055 124.21875 163.51757812 C122.69590522 159.26142221 119.54556222 157.23755763 115.96875 154.76757812 C115.34468262 154.33147217 114.72061523 153.89536621 114.07763672 153.44604492 C50.65585092 109.79281224 -31.06374104 121.46824811 -81.78125 178.51757812 Z M-44.78125 209.51757812 C-61.27493876 229.73674073 -68.6392326 254.98626803 -66.50390625 280.88085938 C-64.13525719 300.80007008 -56.31943018 317.9405642 -43.78125 333.51757812 C-42.9975 334.56945312 -42.21375 335.62132812 -41.40625 336.70507812 C-24.17099474 355.17142305 -0.04131337 366.4109482 25.12109375 367.72070312 C50.88128943 368.22238079 75.3276787 360.52178781 94.21484375 342.50585938 C94.87613281 341.84972656 95.53742188 341.19359375 96.21875 340.51757812 C97.105625 339.67195312 97.9925 338.82632813 98.90625 337.95507812 C100.0509375 336.74851562 100.0509375 336.74851562 101.21875 335.51757812 C101.97865234 334.74994141 101.97865234 334.74994141 102.75390625 333.96679688 C119.32200103 316.34196712 126.64136432 292.02691374 126.36328125 268.21289062 C125.51637118 246.55946022 117.34170793 221.8137177 101.21875 206.51757812 C98.27411535 206.21052479 98.27411535 206.21052479 96.61230469 207.76757812 C96.04415039 208.34507812 95.47599609 208.92257813 94.890625 209.51757812 C94.25858154 210.15397217 93.62653809 210.79036621 92.9753418 211.44604492 C92.3131665 212.12965088 91.65099121 212.81325684 90.96875 213.51757812 C90.29432861 214.20440674 89.61990723 214.89123535 88.92504883 215.59887695 C80.51713917 223.77703826 80.51713917 223.77703826 74.21875 233.51757812 C74.67765625 234.1234375 75.1365625 234.72929687 75.609375 235.35351562 C79.86087201 241.15913129 83.00553118 246.66660931 85.21875 253.51757812 C85.44433594 254.18789063 85.66992188 254.85820312 85.90234375 255.54882812 C90.1155309 270.65818894 87.17196456 287.05241305 79.9375 300.63476562 C72.28135963 313.47620106 60.75654853 322.99693992 46.20947266 327.08178711 C27.9947333 331.54517225 11.15671013 327.85726057 -4.78125 318.51757812 C-17.20893731 310.10673057 -23.85083516 296.35803809 -27.359375 282.18164062 C-29.79656728 266.79122271 -27.01201824 251.76929432 -18.78125 238.51757812 C-9.35968341 226.11517691 3.79958725 216.23258426 19.50390625 213.76367188 C35.49664747 212.31397015 48.18541181 214.8260233 62.21875 222.51757812 C63.5501817 223.18803458 64.88319142 223.85538064 66.21875 224.51757812 C68.91056275 221.85523612 71.59637147 219.18691145 74.28125 216.51757812 C75.40950195 215.40189453 75.40950195 215.40189453 76.56054688 214.26367188 C85.30147485 206.34596407 85.30147485 206.34596407 91.21875 196.51757812 C47.76293451 163.79790529 -8.29321361 169.20169359 -44.78125 209.51757812 Z M-7.92578125 240.84570312 C-16.67326767 253.44208358 -19.1666469 265.40305015 -17.78125 280.51757812 C-15.39395205 293.70107281 -7.24005762 303.63032551 3.21875 311.51757812 C14.1357117 318.64135822 27.48016891 321.01292291 40.21875 318.51757812 C53.56509609 314.79230044 64.53776601 306.93301606 71.7578125 294.96679688 C77.72351274 283.47148559 79.15237086 270.88904741 76.53125 258.18554688 C74.34819989 251.82741343 70.87305813 246.13303162 67.21875 240.51757812 C59.04866353 247.20219433 51.41477521 254.69836699 44.53125 262.70507812 C41.94824135 265.7049048 39.31628631 268.64304472 36.59375 271.51757812 C35.87960938 272.28070313 35.16546875 273.04382813 34.4296875 273.83007812 C32.21875 275.51757812 32.21875 275.51757812 29.5703125 275.89257812 C27.21875 275.51757812 27.21875 275.51757812 25.21875 273.51757812 C24.80851986 270.52467905 24.86218159 269.04938148 26.56054688 266.51635742 C27.17994141 265.88125244 27.79933594 265.24614746 28.4375 264.59179688 C29.12328125 263.87701172 29.8090625 263.16222656 30.515625 262.42578125 C31.24265625 261.69294922 31.9696875 260.96011719 32.71875 260.20507812 C33.41484375 259.48384766 34.1109375 258.76261719 34.828125 258.01953125 C38.34709835 254.38651709 41.92337144 250.81239817 45.5078125 247.24414062 C48.12423153 244.63384074 50.67397502 242.00113391 53.09375 239.20507812 C53.64804687 238.56957031 54.20234375 237.9340625 54.7734375 237.27929688 C56.3892272 235.36899505 56.3892272 235.36899505 58.21875 232.51757812 C36.59221541 218.29928198 9.42041291 220.10180083 -7.92578125 240.84570312 Z " fill="#000000" transform="translate(211.78125,18.482421875)"/>
</svg>
